<svg width="20" height="20" viewBox="0 0 20 20" xmlns="http://www.w3.org/2000/svg"><title>image</title><desc>Created with Sketch.</desc><path d="M18.75 0h-17.5c-.684 0-1.25.557-1.25 1.25v17.5c0 .693.566 1.25 1.25 1.25h17.5c.693 0 1.25-.557 1.25-1.25v-17.5c0-.693-.557-1.25-1.25-1.25zm-1.25 15h-15v-12.5h15v12.5zm-3.125-7.813c.859 0 1.563-.703 1.563-1.563 0-.859-.703-1.563-1.563-1.563-.859 0-1.563.703-1.563 1.563 0 .859.703 1.563 1.563 1.563zm1.875 6.563l-3.125-5-1.162 1.865-3.213-5.615-5 8.75h12.5z" fill="#38DEDF"/></svg>