<svg width="20" height="20" viewBox="0 0 20 20" xmlns="http://www.w3.org/2000/svg"><title>link</title><desc>Created with Sketch.</desc><path d="M12.246 6.865c-.166-.166-.332-.303-.508-.43l-1.758 1.748-.049.078c.186.107.361.234.518.391l.898.898c.986.986.986 2.598 0 3.584l-3.584 3.594c-.479.469-1.113.732-1.797.732-.684 0-1.318-.264-1.797-.732l-.898-.898c-.986-.986-.986-2.598 0-3.584l.82-.82c-.42-.957-.605-1.982-.576-3.008l-2.031 2.031c-1.982 1.973-1.973 5.205 0 7.168l.898.908c.986.986 2.285 1.475 3.584 1.475s2.598-.488 3.584-1.475l3.594-3.594c1.973-1.973 1.973-5.195 0-7.168l-.898-.898zm1.797-6.865c-1.309 0-2.607.488-3.594 1.475l-3.584 3.594c-1.973 1.973-1.973 5.205 0 7.168l.898.898c.156.166.342.293.508.43l1.748-1.748.059-.078c-.186-.117-.371-.234-.527-.391l-.898-.898c-.986-.986-.986-2.598 0-3.584l3.594-3.594c.479-.469 1.113-.732 1.797-.732.674 0 1.309.264 1.787.732l.898.898c.986.986.986 2.598 0 3.584l-.811.82c.42.957.605 1.982.566 3.018l2.041-2.041c1.973-1.973 1.973-5.195 0-7.168l-.898-.898c-.986-.996-2.285-1.484-3.584-1.484z" fill="#38DEDF"/></svg>